<?xml version="1.0" encoding="UTF-8"?><svg id="Layer_1" xmlns="http://www.w3.org/2000/svg" xmlns:xlink="http://www.w3.org/1999/xlink" viewBox="0 0 566.93 566.93"><defs><style>.cls-1{fill:none;}.cls-2{clip-path:url(#clippath);}.cls-3{fill:#f37249;}.cls-4{fill:#2b303a;}.cls-5{clip-path:url(#clippath-1);}</style><clipPath id="clippath"><rect class="cls-1" x="0" y="0" width="566.93" height="566.93"/></clipPath><clipPath id="clippath-1"><rect class="cls-1" x="0" y="0" width="566.93" height="566.93"/></clipPath></defs><g id="Kvadratisk_ikon"><g class="cls-2"><rect class="cls-3" x="0" y="0" width="566.93" height="566.93"/><g class="cls-5"><path class="cls-4" d="M240.39,418.56c-38-3.03-83.54-38.22-78.33-83.03,4.59-39.48,69.6-84.3,38.92-126.53,17.91,12.61,29.53,35.05,29.94,57.83,28.89-30.31-5.13-77.49-4.77-111.54,8.61,14.78,19.64,28.02,32.41,38.91-23.46-50.5-12.85-116.33,25.09-155.74,.44,33.75,16.84,65.54,37.28,90.48,20.25,24.7,45.87,48.05,48.32,83.02,1.96,28.13-24.37,65.84-14.64,92.14,13.15,35.58,43.33-6.45,49.27-23.2,10.14,60.9-36.79,125.32-94.98,130.38,9.87-10.42,15.29-25.69,14.35-40.41-8.65,4.75-17.56-3.65-20.78-11.64-4.4-10.92,.04-21.31,4-31.59,8.83-22.9,14.55-44.26,4.34-68.34,2.53,31.12-9.23,62.95-30.31,84.62-8.37,8.61-16.17,17.67-27.34,11.78-12.54-6.61-16.31-31.33-14.21-43.77-18.3,32.06-17.72,75.13,1.43,106.63"/><path class="cls-4" d="M308.23,526.66c-2.59,.62-5.15,1.23-9.68,2.31-23.14-3.4-39.64-28.92-32.47-51.3,3.1-9.69,7.62-16.17,15.08-20.82-3.61,5.43-1.45,15.44,2.8,18.7,10.4,8.2,19.47-5.25,11.84-16.46-17.14-25.2-37.43-25.86-36.91-54.32,.2-11.05,6.94-23.16,15.24-32.33-2.88,9.6-1.28,16.66-.09,22.26,3.52,14.13,15.44,21.49,26.32,29.58,20.7,15.91,41.97,34.52,35.61,66.11-3.6,17.87-12.21,28.43-26.83,35.94l-.92,.32Z"/></g></g></g></svg>